<svg width="90" height="90" viewBox="0 0 90 90" fill="none" xmlns="http://www.w3.org/2000/svg">
<g clip-path="url(#clip0_1_3064)">
<path d="M0 46.3234C0 70.4452 19.5547 89.9999 43.6765 89.9999L45.8236 47.8234L43.6765 2.64697C19.5547 2.64697 0 22.2017 0 46.3234Z" fill="#F4D844"/>
<path d="M43.6768 2.64697V89.9999C67.7985 89.9999 87.3532 70.4452 87.3532 46.3234C87.3532 40.5811 86.2452 35.0978 84.2311 30.0754L59.9364 5.77386C54.9109 3.7568 49.4233 2.64697 43.6768 2.64697Z" fill="#ECBD2C"/>
<path d="M10.5879 46.3236C10.5879 64.5977 25.4021 79.4118 43.6761 79.4118L45.8232 47.8236L43.6761 13.2354C25.4021 13.2354 10.5879 28.0495 10.5879 46.3236Z" fill="#F9F1F1"/>
<path d="M43.6768 13.2354V79.4118C61.9508 79.4118 76.765 64.5977 76.765 46.3236C76.765 42.1243 75.9827 38.1078 74.5559 34.4116L55.6746 15.4776C51.955 14.0298 47.9085 13.2354 43.6768 13.2354Z" fill="#E2DFF4"/>
<path d="M55.5879 17.2059C55.5879 26.7085 63.2912 34.4118 72.7938 34.4118L74.6467 17.6471L72.7938 0C63.2912 0 55.5879 7.7033 55.5879 17.2059Z" fill="#FF8659"/>
<path d="M72.7941 0V34.4118C82.2967 34.4118 90 26.7085 90 17.2059C90 7.7033 82.2967 0 72.7941 0Z" fill="#FF405C"/>
<path d="M70.1467 9.26465V14.5588H64.8525V19.8529H70.1467V25.147H72.7937L74.6002 17.2058L72.7937 9.26465H70.1467Z" fill="#F9F1F1"/>
<path d="M75.4412 14.5588V9.26465H72.7941V25.147H75.4412V19.8529H80.7353V14.5588H75.4412Z" fill="#E2DFF4"/>
<path d="M30.305 55.71V52.694C35.09 48.634 40.107 44.893 40.107 41.007C40.107 39.122 39.266 37.846 37.265 37.846C35.322 37.846 34.249 39.238 34.22 41.471H30.276C30.421 36.628 33.524 34.395 37.323 34.395C41.876 34.395 44.167 37.092 44.167 40.775C44.167 45.676 39.44 49.504 36.076 52.346H44.631V55.71H30.305ZM49.5093 56V38.6H46.6963V34.859H53.6853V56H49.5093Z" fill="#FF405C"/>
</g>
<defs>
<clipPath id="clip0_1_3064">
<rect width="90" height="90" fill="white"/>
</clipPath>
</defs>
</svg>
