<svg width="100" height="100" viewBox="0 0 100 100" fill="none" xmlns="http://www.w3.org/2000/svg">
<path d="M23.5294 23.2057V39.7695L25.4902 42.7106L23.5294 45.6518V57.4165H50L51.9608 43.2336L50 31.0728L38.8235 19.0342L23.5294 23.2057Z" fill="#1F7099"/>
<path d="M61.9608 21.9917L50 31.0729V57.4164H76.4706V45.6517L74.5098 42.7105L76.4706 39.7693V23.2058L61.9608 21.9917Z" fill="#194D80"/>
<path d="M14.7059 69.1812C6.58412 69.1812 0 75.7651 0 83.887C0 92.009 6.58412 98.5929 14.7059 98.5929H50L51.9608 83.887L50 69.1812H14.7059Z" fill="#C27A48"/>
<path d="M100 75.0635V69.1812C99.2961 69.1812 52.661 69.1812 50 69.1812V98.5929H100V92.7106H91.1765L89.2157 83.4296L91.1765 75.0635H100Z" fill="#A56234"/>
<path d="M92.0261 36.8281L88.2353 34.3919V19.7091L90.5555 16.6648L94.1176 17.9607V34.3913L92.0261 36.8281Z" fill="#0F2E4D"/>
<path d="M82.3525 42.7104H99.9996V63.2987H82.3525V42.7104Z" fill="#FF9F40"/>
<path d="M91.1761 51.534C96.0492 51.534 99.9996 47.5836 99.9996 42.7105C99.9996 37.8374 96.0492 33.887 91.1761 33.887C86.303 33.887 82.3525 37.8374 82.3525 42.7105C82.3525 47.5836 86.303 51.534 91.1761 51.534Z" fill="#FFBE40"/>
<path d="M14.7063 75.0635C9.84105 75.0635 5.88281 79.0217 5.88281 83.887C5.88281 88.7525 9.84105 92.7105 14.7063 92.7105H50.0005L51.9612 83.887L50.0005 75.0635H14.7063Z" fill="#FFF5F5"/>
<path d="M50 75.0635H91.1765V92.7105H50V75.0635Z" fill="#EEE6F2"/>
<path d="M14.7059 80.9458V86.8282H50L51.9608 83.887L50 80.9458H14.7059Z" fill="#EEE6F2"/>
<path d="M23.5294 45.6516H50L51.9608 42.7105L50 39.7693H23.5294V45.6516Z" fill="#194D80"/>
<path d="M50 39.7693H76.4706V45.6516H50V39.7693Z" fill="#0F2E4D"/>
<path d="M50 80.9458H91.1765V86.8282H50V80.9458Z" fill="#CFD3E6"/>
<path d="M0.0927734 16.2399L49.9996 31.0731L51.9604 15.5209L49.9996 1.40698L0.0927734 16.2399Z" fill="#194D80"/>
<path d="M50 1.40698V31.0731L99.9069 16.2399L50 1.40698Z" fill="#0F2E4D"/>
</svg>
