<svg width="111" height="111" viewBox="0 0 111 111" fill="none" xmlns="http://www.w3.org/2000/svg">
<path d="M111 68.2391C111 60.6005 106.223 53.808 99.1005 51.196L81.082 51.1967L83.25 104.091H111V68.2391Z" fill="#FFB655"/>
<path d="M67.3956 51.1972C60.2749 53.8102 55.5 60.6016 55.5 68.2389L53.332 85.3962L55.5 104.091H83.25V51.1965L67.3956 51.1972Z" fill="#FFDA44"/>
<path d="M101.405 25.0633C101.405 20.8167 99.9425 16.9137 97.4996 13.8215H81.082L83.25 39.7741C92.3273 39.7741 101.405 39.7743 101.405 39.7743V25.0633Z" fill="#FFCDBE"/>
<path d="M69.0006 13.8215C66.5578 16.9137 65.0957 20.8167 65.0957 25.0633V39.7745C65.0964 39.7741 74.1732 39.7741 83.2503 39.7743V13.8215H69.0006Z" fill="#FFDECF"/>
<path d="M83.25 34.5435L81.082 47.522L83.25 60.5005C93.2764 60.5005 101.405 52.3724 101.405 42.346V39.7743C101.405 39.7743 92.9673 34.5435 83.25 34.5435Z" fill="#A05F4B"/>
<path d="M97.4996 13.8215C94.1748 9.61302 89.0298 6.90869 83.25 6.90869L81.082 13.8215L83.25 20.726C89.0276 20.7262 94.1746 18.0273 97.4996 13.8215Z" fill="#7D4B3B"/>
<path d="M83.2496 6.90869C77.4698 6.90869 72.3248 9.61302 69 13.8215C72.325 18.0273 77.472 20.726 83.2496 20.726V6.90869Z" fill="#A05F4B"/>
<path d="M65.0957 39.7743V42.346C65.0957 52.3724 73.2238 60.5005 83.2503 60.5005V34.5435C73.5337 34.5435 65.0968 39.7737 65.0957 39.7743Z" fill="#C9885B"/>
<path d="M55.5 68.239C55.5 60.3541 50.4103 53.3706 42.9039 50.9564L38.9874 49.6968H38.9872L25.582 77.3499L27.75 104.091H55.5V68.239Z" fill="#00CC76"/>
<path d="M16.5128 49.6965L12.5959 50.9563C5.08974 53.3706 0 60.3538 0 68.239V104.091H27.75V77.3498L16.5128 49.6965Z" fill="#90E36A"/>
<path d="M25.582 49.6965L27.75 79.5178L38.9872 49.6967L25.582 49.6965Z" fill="#ECE6F2"/>
<path d="M16.5128 49.6965L27.75 79.5178V49.6965H16.5128Z" fill="#FFF5F5"/>
<path d="M45.9046 26.6893L25.582 19.4795L27.75 53.5918C37.7764 53.5918 45.9046 45.4637 45.9046 35.4373V26.6893Z" fill="#FFCDBE"/>
<path d="M9.5957 26.6893V26.6889V35.4373C9.5957 45.4637 17.7239 53.5918 27.7503 53.5918V19.4795L9.5957 26.6893Z" fill="#FFDECF"/>
<path d="M36.8273 26.6892H45.9046V26.689V25.0633C45.9046 15.0368 37.7764 6.90869 27.75 6.90869L25.582 14.4398L27.75 21.6474C29.6433 24.6722 33.0034 26.6892 36.8273 26.6892Z" fill="#192B80"/>
<path d="M27.7503 6.90869C17.7239 6.90869 9.5957 15.0368 9.5957 25.0633V26.6888V26.6892H18.673C22.4969 26.6892 25.857 24.6722 27.7503 21.6476V6.90869Z" fill="#1F4899"/>
</svg>
