<svg width="92" height="92" viewBox="0 0 92 92" fill="none" xmlns="http://www.w3.org/2000/svg">
<path d="M46.0005 52.2046C59.1461 52.2046 69.8027 41.548 69.8027 28.4023C69.8027 15.2567 59.1461 4.6001 46.0005 4.6001C32.8549 4.6001 22.1982 15.2567 22.1982 28.4023C22.1982 41.548 32.8549 52.2046 46.0005 52.2046Z" fill="#FCE774"/>
<path d="M46.0008 44.8447C55.0816 44.8447 62.4431 37.4832 62.4431 28.4024C62.4431 19.3216 55.0816 11.9602 46.0008 11.9602C36.92 11.9602 29.5586 19.3216 29.5586 28.4024C29.5586 37.4832 36.92 44.8447 46.0008 44.8447Z" fill="#E6C031"/>
<path d="M18.3737 87.1827L41.4293 78.7944C43.1009 78.1862 43.963 76.338 43.3548 74.6663L43.0402 73.8015C42.432 72.1299 40.5838 71.2678 38.9121 71.876L15.8566 80.2643C14.1849 80.8725 13.3228 82.7206 13.931 84.3923L14.2456 85.2571C14.8538 86.9288 16.702 87.7909 18.3737 87.1827Z" fill="#E6C031"/>
<path d="M54.0626 65.3201H29.5354C27.7571 65.3201 26.3154 66.7617 26.3154 68.5401V69.4601C26.3154 71.2384 27.7571 72.6801 29.5354 72.6801H54.0626C55.841 72.6801 57.2826 71.2384 57.2826 69.4601V68.5401C57.2826 66.7617 55.841 65.3201 54.0626 65.3201Z" fill="#FCE774"/>
<path d="M58.7599 57.9619H34.2327C32.4543 57.9619 31.0127 59.4036 31.0127 61.1819V62.1019C31.0127 63.8803 32.4543 65.3219 34.2327 65.3219H58.7599C60.5383 65.3219 61.9799 63.8803 61.9799 62.1019V61.1819C61.9799 59.4036 60.5383 57.9619 58.7599 57.9619Z" fill="#FCE774"/>
<path d="M78.0345 82.7862L69.6462 59.7307C69.038 58.059 67.1898 57.1969 65.5181 57.8051L64.6533 58.1197C62.9817 58.7279 62.1196 60.5761 62.7278 62.2478L71.1161 85.3033C71.7243 86.975 73.5725 87.8371 75.2441 87.2289L76.1089 86.9143C77.7806 86.3061 78.6427 84.4579 78.0345 82.7862Z" fill="#FCE774"/>
<path d="M64.2657 72.6802H39.7386C37.9602 72.6802 36.5186 74.1218 36.5186 75.9002V76.8202C36.5186 78.5985 37.9602 80.0402 39.7386 80.0402H64.2657C66.0441 80.0402 67.4858 78.5985 67.4858 76.8202V75.9002C67.4858 74.1218 66.0441 72.6802 64.2657 72.6802Z" fill="#FCE774"/>
<path d="M56.3976 80.04H31.8704C30.092 80.04 28.6504 81.4817 28.6504 83.26V84.18C28.6504 85.9584 30.092 87.4 31.8704 87.4H56.3976C58.1759 87.4 59.6176 85.9584 59.6176 84.18V83.26C59.6176 81.4817 58.1759 80.04 56.3976 80.04Z" fill="#FCE774"/>
<path d="M20.8185 28.4004C20.8185 24.1706 21.893 19.9838 23.9262 16.2913C24.2945 15.6246 25.1346 15.3874 25.8003 15.7486C26.4679 16.117 26.7113 16.9561 26.343 17.6245C24.5344 20.9074 23.5785 24.6341 23.5785 28.4004C23.5785 40.7647 33.6374 50.8236 46.0017 50.8236C58.366 50.8236 68.4249 40.7647 68.4249 28.4004C68.4249 16.0379 58.366 5.97899 46.0017 5.97899C41.2957 5.97899 36.7882 7.42728 32.9663 10.1675C32.3472 10.6131 31.4856 10.4712 31.0409 9.85126C30.5962 9.23134 30.739 8.36884 31.3581 7.92501C35.6517 4.84696 40.7153 3.21899 46.0017 3.21899C59.8879 3.21899 71.1849 14.5159 71.1849 28.4004C71.1849 42.2867 59.8879 53.5836 46.0017 53.5836C32.1154 53.5836 20.8185 42.2867 20.8185 28.4004ZM28.1794 28.4004C28.1794 18.5733 36.1746 10.579 46.0017 10.579C55.8288 10.579 63.824 18.5733 63.824 28.4004C63.824 38.2275 55.8288 46.2236 46.0017 46.2236C36.1746 46.2236 28.1794 38.2275 28.1794 28.4004ZM30.9394 28.4004C30.9394 36.7056 37.6965 43.4636 46.0017 43.4636C54.3068 43.4636 61.064 36.7056 61.064 28.4004C61.064 20.0952 54.3068 13.339 46.0017 13.339C37.6965 13.339 30.9394 20.0952 30.9394 28.4004ZM76.6061 88.1878L75.74 88.5005C75.2279 88.6874 74.696 88.7808 74.1659 88.7808C73.5038 88.7808 72.8434 88.6352 72.2244 88.3459C71.1112 87.8267 70.2658 86.9049 69.8462 85.7513L67.6991 79.8521C66.8554 80.8053 65.6371 81.419 64.2669 81.419H60.6087C60.8563 81.9833 60.9984 82.604 60.9984 83.259V84.179C60.9984 86.7162 58.9347 88.779 56.3984 88.779H31.872C29.7515 88.779 27.9793 87.3296 27.4493 85.3741L18.859 88.5005C18.346 88.6874 17.8132 88.7808 17.2822 88.7808C16.6201 88.7808 15.9597 88.6352 15.3407 88.3459C14.2275 87.8267 13.3821 86.9049 12.9625 85.7513L12.6481 84.887C12.2276 83.7334 12.2824 82.4845 12.8017 81.3705C13.321 80.2564 14.2437 79.4119 15.3982 78.9914L29.0775 74.0125C26.7597 73.7778 24.9378 71.8385 24.9378 69.459V68.5408C24.9378 66.0036 27.0015 63.939 29.5378 63.939H30.0254C29.7778 63.3747 29.6357 62.754 29.6357 62.099V61.1808C29.6357 58.6436 31.6995 56.5808 34.2357 56.5808H58.7613C60.1625 56.5808 61.4038 57.2234 62.2484 58.2143C62.7528 57.6009 63.4074 57.0986 64.2058 56.8072L65.071 56.4927C67.451 55.6302 70.0996 56.8593 70.9666 59.242L79.3544 82.2887C80.2223 84.6731 78.9896 87.3181 76.6061 88.1878ZM34.2357 63.939H58.7613C59.7765 63.939 60.6022 63.1142 60.6022 62.099V61.1808C60.6022 60.1656 59.7765 59.3408 58.7613 59.3408H34.2357C33.2214 59.3408 32.3957 60.1656 32.3957 61.1808V62.099C32.3957 63.1142 33.2214 63.939 34.2357 63.939ZM29.5378 71.299H54.0643C55.0786 71.299 55.9043 70.4742 55.9043 69.459V68.5408C55.9043 67.5256 55.0786 66.699 54.0643 66.699H29.5378C28.5235 66.699 27.6978 67.5256 27.6978 68.5408V69.459C27.6978 70.4742 28.5235 71.299 29.5378 71.299ZM27.3516 82.4716C27.7276 80.3102 29.6052 78.659 31.872 78.659H35.5302C35.2825 78.0947 35.1405 77.474 35.1405 76.819V75.899C35.1405 75.4728 35.2175 75.0679 35.3265 74.676L16.3416 81.5861C15.8798 81.7532 15.5114 82.091 15.303 82.5367C15.0954 82.9823 15.0739 83.4818 15.2419 83.9436L15.5563 84.8079C15.7243 85.2679 16.0622 85.6381 16.5078 85.8447C16.9525 86.0549 17.4529 86.0765 17.9147 85.9058L27.3516 82.4716ZM56.3984 81.419H31.872C30.8576 81.419 30.032 82.2438 30.032 83.259V84.179C30.032 85.1942 30.8576 86.019 31.872 86.019H56.3984C57.4127 86.019 58.2384 85.1942 58.2384 84.179V83.259C58.2384 82.2438 57.4127 81.419 56.3984 81.419ZM66.1078 75.899C66.1078 74.8838 65.2822 74.059 64.2669 74.059H39.7414C38.7261 74.059 37.9005 74.8838 37.9005 75.899V76.819C37.9005 77.8342 38.7261 78.659 39.7414 78.659H64.2669C65.2822 78.659 66.1078 77.8342 66.1078 76.819V75.899ZM64.598 71.3325L62.296 65.0079C61.4516 66.0318 60.1894 66.699 58.7613 66.699H58.2738C58.5219 67.264 58.6643 67.8853 58.6643 68.5408V69.459C58.6643 70.114 58.5222 70.7347 58.2746 71.299H64.2669C64.3802 71.299 64.4867 71.3244 64.598 71.3325ZM76.7615 83.2338L68.3737 60.1871C68.1014 59.4396 67.3944 58.976 66.6415 58.976C66.433 58.976 66.221 59.012 66.0144 59.0874L65.1501 59.4019C64.1977 59.7487 63.7036 60.807 64.0504 61.7594L72.4391 84.8061C72.608 85.2679 72.9458 85.6381 73.3914 85.8447C73.8371 86.0549 74.3357 86.0747 74.7975 85.9058L75.6636 85.5931C76.615 85.2463 77.1083 84.188 76.7615 83.2338ZM28.1533 14.0559C28.908 14.0559 29.5333 13.4486 29.5333 12.6759C29.5333 11.9213 28.908 11.2959 28.1533 11.2959C27.3807 11.2959 26.7733 11.9213 26.7733 12.6759C26.7733 13.4486 27.3807 14.0559 28.1533 14.0559Z" fill="#503B5E"/>
<path d="M40.2267 22.98V21.02H50.9667V22.98H48.9467V24.5H50.9667V26.34H48.8267C48.4067 28.84 46.8867 29.96 43.4867 29.96V31.02C43.4867 32.16 43.8667 33.04 45.2067 33.04C46.4667 33.04 46.9067 32.28 46.9067 31.04H49.5067C49.4467 33.72 47.9667 35.2 45.2267 35.2C42.4067 35.2 40.8667 33.66 40.8667 30.74V28.08C44.7667 28.08 45.9067 27.94 46.2067 26.34H40.2267V24.5H46.3067V22.98H40.2267Z" fill="#503B5E"/>
</svg>
