<svg width="90" height="90" viewBox="0 0 90 90" fill="none" xmlns="http://www.w3.org/2000/svg">
<path d="M63.457 21.2695H58.1836V10.7227C58.1836 9.26789 56.9992 8.08594 55.5469 8.08594H34.4531C33.0008 8.08594 31.8164 9.26789 31.8164 10.7227V21.2695H26.543V10.7227C26.543 6.36082 30.0913 2.8125 34.4531 2.8125H55.5469C59.9087 2.8125 63.457 6.36082 63.457 10.7227V21.2695Z" fill="#3D4566"/>
<path d="M55.5469 2.8125H45V8.08594H55.5469C56.9992 8.08594 58.1836 9.26789 58.1836 10.7227V21.2695H63.457V10.7227C63.457 6.36082 59.9087 2.8125 55.5469 2.8125Z" fill="#2E2E4D"/>
<path d="M90 87.1875H0V42.3633H5.27344C5.27344 46.7251 8.82176 50.2734 13.1836 50.2734H76.8164C81.1782 50.2734 84.7266 46.7251 84.7266 42.3633H90V87.1875Z" fill="#3D4566"/>
<path d="M76.8164 50.2734H45V87.1875H90V42.3633H84.7266C84.7266 46.7251 81.1782 50.2734 76.8164 50.2734Z" fill="#2E2E4D"/>
<path d="M76.8164 55.5469H13.1836C5.91205 55.5469 0 49.6324 0 42.3633V26.543C0 22.1811 3.54832 18.6328 7.91016 18.6328H82.0898C86.4517 18.6328 90 22.1811 90 26.543V42.3633C90 49.6324 84.0879 55.5469 76.8164 55.5469Z" fill="#B37059"/>
<path d="M82.0898 18.6328H45V55.5469H76.8164C84.0879 55.5469 90 49.6324 90 42.3633V26.543C90 22.1811 86.4517 18.6328 82.0898 18.6328Z" fill="#995A4D"/>
<path d="M18.6328 60.8203V39.7266H29.1797V60.8203L23.9062 66.0938L18.6328 60.8203Z" fill="#FFDF40"/>
<path d="M60.8203 60.8203V39.7266H71.3672V60.8203L66.0938 66.0938L60.8203 60.8203Z" fill="#FFBE40"/>
</svg>
