<svg xmlns:xodm="http://www.corel.com/coreldraw/odm/2003" xmlns="http://www.w3.org/2000/svg" xmlns:xlink="http://www.w3.org/1999/xlink" version="1.1" id="Layer_1" x="0px" y="0px" style="enable-background:new 0 0 595.3 374.4;" xml:space="preserve" viewBox="46.5 66.7 521 221.5">
<style type="text/css">
	.st0{fill:#303030;}
	.st1{fill-rule:evenodd;clip-rule:evenodd;fill:#EF7C1B;}
	.st2{fill-rule:evenodd;clip-rule:evenodd;fill:#303030;}
	.st3{fill:#FEFEFE;}
	.st4{fill:#C5C6C6;}
	.st5{fill-rule:evenodd;clip-rule:evenodd;fill:#C5C6C6;}
	.st6{fill-rule:evenodd;clip-rule:evenodd;fill:#F58120;}
	.st7{fill:#FFFFFF;}
	.st8{fill:none;stroke:#F58120;stroke-width:1.5001;stroke-miterlimit:10;}
	.st9{fill-rule:evenodd;clip-rule:evenodd;fill:#FFFFFF;}
	.st10{fill:#F58120;}
	.st11{fill-rule:evenodd;clip-rule:evenodd;fill:#274D8D;}
</style>
<path class="st0" d="M141.3,100.8c0,1.8-0.9,2.7-2.7,2.7H135V88.3h3.5c1.8,0,2.7,0.9,2.7,2.7V100.8L141.3,100.8z M125.6,125.1h9.5  V112h4.7c3.4,0,6.1-0.8,8-2.5c1.9-1.7,2.9-4.2,2.9-7.5V89.9c0-3.3-0.9-5.8-2.9-7.5c-1.9-1.7-4.6-2.5-8-2.5h-14.2L125.6,125.1  L125.6,125.1z M180.4,79.8l-7.8,23.1l-7.8-23.1h-9.7v45.3h9v-15.7c0-4.9-0.4-9.3-1.2-13.4l6,17.6h7.3l6-17.6  c-0.8,4.4-1.2,8.9-1.2,13.4v15.7h9.1V79.8H180.4L180.4,79.8z"/>
<polygon class="st1" points="117,129.6 141.4,251.6 93.9,288.2 46.5,251.6 70.8,129.6 "/>
<polygon class="st0" points="265.5,220.2 147.2,220.2 147.2,217.4 265.5,217.4 "/>
<polygon class="st2" points="276.8,217.5 273.1,217.5 270.5,232.9 278.9,232.9 279.4,230.1 274.6,230.1 "/>
<polygon class="st2" points="292.2,220.4 292.8,217.5 283.7,217.5 281,232.9 290.1,232.9 290.6,230 285.2,230 285.7,226.5   290.6,226.5 291.1,223.7 286.2,223.7 286.8,220.4 "/>
<path class="st2" d="M303,232.9h3.8l-2.8-15.5h-4.2l-8,15.5h3.8l1.4-2.7h5.5L303,232.9L303,232.9z M298.5,227.3l2.8-5.7l0.9,5.7  H298.5L298.5,227.3z"/>
<path class="st2" d="M317.6,217.5h-6.1l-2.6,15.5h3.6l1-5.8h0.9l2.1,5.8h4.1l-2.4-6.1c1.2-0.3,2.1-0.9,2.8-1.7  c0.7-0.8,1.1-1.7,1.3-2.8c0.1-0.3,0.1-0.6,0.1-0.9c0-1.2-0.4-2.1-1.2-2.8C320.3,217.8,319.2,217.5,317.6,217.5L317.6,217.5z   M318.5,222.5c-0.1,0.6-0.4,1.1-0.7,1.4c-0.4,0.3-0.9,0.5-1.6,0.5H314l0.7-3.9h2.2c0.6,0,1,0.1,1.3,0.4c0.3,0.3,0.4,0.6,0.4,1.1  C318.6,222.1,318.6,222.2,318.5,222.5L318.5,222.5z"/>
<polygon class="st2" points="339,217.5 335.4,217.5 333.8,227 329.4,217.5 325.8,217.5 323.1,232.9 326.8,232.9 328.4,223.4   332.8,232.9 336.4,232.9 "/>
<polygon class="st2" points="347.4,217.5 344.8,232.9 348.4,232.9 349.5,226.6 354,226.6 354.5,223.8 350,223.8 350.5,220.4   356.6,220.4 357.1,217.5 "/>
<path class="st2" d="M365.5,217.5h-6.1l-2.6,15.5h3.6l1-5.8h0.9l2.1,5.8h4.1l-2.4-6.1c1.2-0.3,2.1-0.9,2.8-1.7  c0.7-0.8,1.1-1.7,1.3-2.8c0.1-0.3,0.1-0.6,0.1-0.9c0-1.2-0.4-2.1-1.2-2.8C368.2,217.8,367,217.5,365.5,217.5L365.5,217.5z   M366.4,222.5c-0.1,0.6-0.4,1.1-0.7,1.4c-0.4,0.3-0.9,0.5-1.6,0.5h-2.2l0.7-3.9h2.2c0.6,0,1,0.1,1.3,0.4c0.3,0.3,0.4,0.6,0.4,1.1  C366.4,222.1,366.4,222.2,366.4,222.5L366.4,222.5z"/>
<path class="st2" d="M378.1,233.1c1.7,0,3.2-0.4,4.6-1.2c1.3-0.8,2.4-1.9,3.1-3.3s1.1-3,1.1-4.8c0-1.3-0.3-2.4-0.8-3.4  c-0.5-1-1.3-1.7-2.2-2.3c-1-0.5-2.1-0.8-3.3-0.8c-1.7,0-3.2,0.4-4.5,1.2c-1.3,0.8-2.4,1.9-3.1,3.3c-0.7,1.4-1.1,3-1.1,4.8  c0,1.3,0.3,2.4,0.8,3.4c0.5,1,1.3,1.7,2.2,2.3C375.7,232.8,376.8,233.1,378.1,233.1L378.1,233.1z M378.6,229.6c-1,0-1.8-0.3-2.4-0.9  c-0.6-0.6-0.8-1.4-0.8-2.5c0-1,0.2-1.9,0.6-2.8c0.4-0.8,0.9-1.5,1.7-2c0.7-0.5,1.5-0.7,2.5-0.7c1,0,1.8,0.3,2.4,0.9  c0.6,0.6,0.8,1.4,0.8,2.5c0,1-0.2,1.9-0.6,2.7c-0.4,0.9-1,1.5-1.7,2C380.4,229.4,379.5,229.6,378.6,229.6L378.6,229.6z"/>
<polygon class="st2" points="403.2,217.5 397.3,228.2 394.9,217.5 390.7,217.5 388,232.9 391.7,232.9 393.2,223.6 395,232.9   397.9,232.9 402.8,223.7 401.3,232.9 404.9,232.9 407.5,217.5 "/>
<polygon class="st2" points="415,217.5 414.5,220.4 418.5,220.4 416.3,232.9 420,232.9 422.1,220.4 426,220.4 426.5,217.5 "/>
<polygon class="st2" points="438,217.5 437,223.5 431.3,223.5 432.4,217.5 428.8,217.5 426.1,232.9 429.8,232.9 430.8,226.5   436.5,226.5 435.4,232.9 439,232.9 441.6,217.5 "/>
<polygon class="st2" points="453.2,220.4 453.7,217.5 444.6,217.5 442,232.9 451.1,232.9 451.6,230 446.2,230 446.7,226.5   451.6,226.5 452.1,223.7 447.2,223.7 447.8,220.4 "/>
<path class="st2" d="M472.7,221.5c0-0.3,0.1-0.5,0.1-0.8c0-1-0.4-1.8-1.1-2.4c-0.7-0.6-1.8-0.9-3.1-0.9h-6.7l-2.6,15.5h6.9  c1.5,0,2.8-0.4,3.8-1.1c1-0.7,1.6-1.8,1.8-3.1c0-0.2,0.1-0.4,0.1-0.7c0-0.7-0.2-1.4-0.6-2c-0.4-0.6-1-0.9-1.7-1.1  c0.8-0.2,1.5-0.7,2-1.3C472.2,223.1,472.5,222.4,472.7,221.5L472.7,221.5z M466.7,223.7h-2.3l0.6-3.3h2.4c0.5,0,0.9,0.1,1.2,0.3  c0.3,0.2,0.4,0.6,0.4,1c0,0.2,0,0.3,0,0.4c-0.1,0.5-0.3,0.9-0.7,1.2C467.8,223.6,467.4,223.7,466.7,223.7L466.7,223.7z M468.2,228.2  c-0.1,0.6-0.3,1-0.7,1.3c-0.4,0.3-0.9,0.4-1.5,0.4h-2.7l0.6-3.5h2.6c0.5,0,0.9,0.1,1.2,0.4c0.3,0.2,0.4,0.6,0.4,1  C468.2,227.9,468.2,228,468.2,228.2L468.2,228.2z"/>
<polygon class="st2" points="484.8,220.4 485.3,217.5 476.2,217.5 473.6,232.9 482.7,232.9 483.2,230 477.7,230 478.3,226.5   483.1,226.5 483.6,223.7 478.8,223.7 479.3,220.4 "/>
<path class="st2" d="M491.3,233.1c1.2,0,2.2-0.2,3.1-0.6c0.9-0.4,1.5-0.9,2-1.7c0.5-0.7,0.7-1.5,0.7-2.4c0-0.8-0.2-1.5-0.6-2.1  c-0.4-0.6-0.8-1-1.4-1.3c-0.5-0.3-1.2-0.7-2.1-1.1c-0.8-0.4-1.4-0.7-1.8-1.1c-0.4-0.3-0.6-0.7-0.6-1.1c0-0.4,0.2-0.8,0.5-1.1  c0.3-0.2,0.7-0.4,1.2-0.4c0.5,0,0.9,0.1,1.1,0.4c0.3,0.3,0.4,0.6,0.4,1c0,0.1,0,0.2,0,0.3h3.9c0-0.1,0-0.3,0-0.5  c0-0.9-0.2-1.6-0.7-2.2c-0.4-0.6-1.1-1.1-1.8-1.4c-0.8-0.3-1.7-0.5-2.7-0.5c-1.1,0-2.1,0.2-3,0.6c-0.9,0.4-1.6,1-2.1,1.7  c-0.5,0.7-0.7,1.6-0.7,2.6c0,0.8,0.2,1.5,0.6,2c0.4,0.6,0.8,1,1.4,1.3c0.5,0.3,1.2,0.7,2,1c0.8,0.4,1.5,0.7,1.9,1  c0.4,0.3,0.6,0.7,0.6,1.1c0,0.5-0.1,0.8-0.5,1.1c-0.3,0.2-0.8,0.4-1.3,0.4c-0.6,0-1.1-0.2-1.4-0.5c-0.3-0.3-0.4-0.8-0.4-1.3h-3.8  c0,0.3,0,0.5,0,0.6c0,1.3,0.5,2.4,1.5,3.1C488.4,232.7,489.7,233.1,491.3,233.1L491.3,233.1z"/>
<polygon class="st2" points="500.8,217.5 500.3,220.4 504.3,220.4 502.2,232.9 505.8,232.9 507.9,220.4 511.8,220.4 512.3,217.5 "/>
<polygon class="st3" points="84.5,129.2 103.4,129.2 103.4,219.1 93.9,227.5 84.5,219.1 "/>
<path class="st0" d="M177.8,133.2c-2.9-2.7-6.7-4.1-11.4-4.1c-4.7,0-9.3,1.3-13.7,3.8v-3.4h-24.8l15.3,76.5h10.6v-57.2  c1.8-1.1,3.8-1.7,6-1.7c2.2,0,3.2,1,3.2,3.1V206h19v-60.6C182.1,140,180.7,135.9,177.8,133.2L177.8,133.2z"/>
<path class="st0" d="M217.8,189.5c2.6,0,4.9-0.6,7.1-1.8v17.4c-2.8,1.4-6.5,2.1-11.1,2.1c-7.1,0-12.1-1.7-15.1-5.2  c-3-3.5-4.5-8.5-4.5-15v-41h-6.6v-16.5h6.4v-13.2h18.9v13.2h11.1V146h-11.1v38.9C213.1,188,214.7,189.5,217.8,189.5z"/>
<path class="st0" d="M249.2,160.5h11v-11.2c0-3.3-1.8-4.9-5.5-4.9c-3.7,0-5.5,1.6-5.5,4.9V160.5z M231.1,184.2v-35.1  c0-6.6,1.9-11.7,5.9-15.4c3.9-3.7,9.8-5.5,17.7-5.5c15.2,0,22.8,7,22.8,20.9v26.3h-28.3v7.3c0,2.6,0.7,4.4,2.1,5.5  c1.4,1.1,4.4,1.6,9.1,1.6c4.7,0,9.8-0.9,15.4-2.6v17.1c-5.8,1.6-12,2.5-18.7,2.5C239.8,206.8,231.1,199.3,231.1,184.2L231.1,184.2z"/>
<path class="st0" d="M317.9,129.1h2.1v18h-2.9c-4.6,0-8.7,0.9-12.2,2.6V206h-18.8v-76.5h17.7v5.2c4.2-2.7,7.2-4.3,8.9-4.8  C314.4,129.4,316.2,129.1,317.9,129.1L317.9,129.1z"/>
<path class="st0" d="M343.9,132.9c4.4-2.5,9-3.8,13.7-3.8c4.7,0,8.5,1.4,11.4,4.1c2.9,2.7,4.3,6.8,4.3,12.3V206h-19v-55.8  c0-2.1-1.1-3.1-3.2-3.1c-2.2,0-4.2,0.6-6,1.7V206h-18.8v-76.5h17.7V132.9L343.9,132.9z"/>
<path class="st0" d="M381,149.7c0-6.9,2-12.1,6-15.6c4-3.5,10.5-5.3,19.5-5.3c6.1,0,11.2,0.6,15.2,1.9V148  c-3.7-1.3-7.8-1.9-12.3-1.9c-4.4,0-7.3,0.4-8.5,1.2c-1.2,0.8-1.8,2-1.8,3.8v1c0,1,0.3,1.9,0.9,2.7c0.6,0.7,2,1.8,4,3.3l10.1,7  c3.2,2.2,5.6,4.5,7.3,7.1c1.7,2.6,2.6,5.8,2.6,9.7v3.2c0,14.4-9,21.5-27.1,21.5c-6.3,0-11.7-0.6-16.2-1.7v-17.5  c3.9,1.2,8.2,1.8,12.9,1.8c4.7,0,7.9-0.4,9.4-1.2c1.5-0.8,2.3-2.1,2.3-3.7v-1.2c0-1.3-0.4-2.3-1.2-3.1c-1-1-5.8-4.5-14.3-10.4  c-5.9-4.1-8.8-9.7-8.8-16.6L381,149.7L381,149.7z"/>
<path class="st0" d="M432.2,109.1H451v21.7c3.3-1.2,6.8-1.8,10.6-1.8c11.8,0,17.7,5.5,17.7,16.5V206h-19v-55.8  c0-2.1-1.2-3.1-3.5-3.1c-2.4,0-4.3,0.4-5.7,1.3V206h-18.8L432.2,109.1L432.2,109.1z"/>
<path class="st0" d="M489.8,131.6h18.8V206h-18.8V131.6z M499.2,127.3c-6.9,0-10.4-3.4-10.4-10.2c0-6.8,3.5-10.2,10.4-10.2  c6.9,0,10.4,3.4,10.4,10.2C509.6,123.9,506.1,127.3,499.2,127.3z"/>
<path class="st0" d="M548.4,150.3c0-2.1-1.2-3.1-3.5-3.1c-2.4,0-4.5,0.6-6.3,1.7V188h5c3.2,0,4.9-1.4,4.9-4.2V150.3z M537.5,132.9  c4.4-2.5,9.1-3.8,14-3.8c4.9,0,8.8,1.4,11.7,4.1c2.9,2.7,4.3,6.8,4.3,12.3V187c0,6.5-1.7,11.3-5.2,14.4c-3.4,3.1-8.1,4.7-13.9,4.7  h-9.8v19.3h-18.8v-95.8h17.7L537.5,132.9L537.5,132.9z"/>
<path class="st5" d="M93.9,79.9c10.5,0,18.9,8.4,18.9,18.8c0,10.5-8.4,18.9-18.9,18.9c-10.4,0-18.8-8.4-18.8-18.9  C75.1,88.3,83.5,79.9,93.9,79.9z"/>
<path class="st9" d="M93.9,67.7c15.3,0,27.7,12.5,27.7,27.7c0,15.3-12.4,27.7-27.7,27.7c-15.2,0-27.7-12.4-27.7-27.7  C66.2,80.2,78.7,67.7,93.9,67.7z"/>
<path class="st10" d="M93.9,68.7c-14.8,0-26.8,12-26.8,26.8c0,14.8,12,26.8,26.8,26.8s26.8-12,26.8-26.8S108.7,68.7,93.9,68.7z   M93.9,124.1c-15.8,0-28.7-12.9-28.7-28.7c0-15.8,12.9-28.7,28.7-28.7c15.8,0,28.7,12.9,28.7,28.7  C122.6,111.3,109.7,124.1,93.9,124.1z"/>
<path class="st11" d="M93.9,76.6c10.5,0,18.9,8.4,18.9,18.8c0,10.5-8.4,18.9-18.9,18.9c-10.4,0-18.8-8.4-18.8-18.9  C75.1,85,83.5,76.6,93.9,76.6z"/>
</svg>