<svg width="110" height="110" viewBox="0 0 110 110" fill="none" xmlns="http://www.w3.org/2000/svg">
<path d="M54.999 104.5C53.2198 104.5 51.5464 103.807 50.2878 102.548L45.1024 97.3627C43.8437 96.104 43.1502 94.4307 43.1502 92.6514C43.1502 90.8721 43.8437 89.1988 45.1024 87.9401C46.0041 87.0366 47.1206 86.4249 48.3356 86.1516V85.7295C44.6627 84.9245 41.1989 83.4501 38.0643 81.3585L37.6794 81.7433C38.3292 82.7715 38.7048 83.9874 38.7048 85.2907C38.7048 88.9646 35.7151 91.9542 32.0413 91.9542H24.7095C21.0356 91.9542 18.046 88.9646 18.046 85.2907V77.958C18.046 74.2841 21.0356 71.2945 24.7095 71.2945C26.0119 71.2945 27.2287 71.6701 28.2559 72.3189L28.8035 71.7705C26.9061 68.6618 25.5945 65.2557 24.913 61.6637H23.8477C23.5735 62.8796 22.9618 63.9952 22.0591 64.8969C20.8004 66.1556 19.1271 66.8491 17.3479 66.8491C15.5686 66.8491 13.8953 66.1556 12.6366 64.8969L7.45121 59.7115C6.19251 58.4528 5.49902 56.7795 5.49902 55.0003C5.49902 53.221 6.19251 51.5477 7.45121 50.289L12.6366 45.1036C13.8953 43.8449 15.5686 43.1514 17.3479 43.1514C19.1271 43.1514 20.8004 43.8449 22.0591 45.1036C22.9618 46.0053 23.5735 47.1209 23.8477 48.3368H25.2728C26.1234 44.979 27.542 41.8035 29.484 38.9087L28.2569 37.6816C27.2287 38.3304 26.0119 38.706 24.7095 38.706C21.0356 38.706 18.046 35.7164 18.046 32.0425V24.7098C18.046 21.0359 21.0356 18.0463 24.7095 18.0463H32.0413C35.7151 18.0463 38.7048 21.0359 38.7048 24.7098C38.7048 26.0131 38.3292 27.2309 37.6794 28.259L39.0906 29.6702C41.9473 27.9355 45.0615 26.688 48.3356 25.9722V23.8489C47.1206 23.5756 46.0041 22.9639 45.1024 22.0604C43.8437 20.8017 43.1502 19.1284 43.1502 17.3491C43.1502 15.5698 43.8437 13.8965 45.1024 12.6378L50.2878 7.45243C51.5464 6.19374 53.2198 5.50024 54.999 5.50024C56.7783 5.50024 58.4516 6.19374 59.7103 7.45243L64.8957 12.6378C66.1544 13.8965 66.8479 15.5698 66.8479 17.3491C66.8479 19.1284 66.1544 20.8017 64.8957 22.0604C63.994 22.9639 62.8775 23.5756 61.6625 23.8489V25.987C64.9273 26.7121 68.0313 27.9615 70.8777 29.6981L72.3186 28.2572C71.6688 27.229 71.2933 26.0131 71.2933 24.7098C71.2933 21.0359 74.2829 18.0463 77.9567 18.0463H85.2886C88.9624 18.0463 91.9521 21.0359 91.9521 24.7098V32.0425C91.9521 35.7164 88.9624 38.706 85.2886 38.706C83.9862 38.706 82.7693 38.3304 81.7421 37.6816L80.4658 38.957C82.3901 41.8388 83.7984 44.9995 84.6434 48.3368H86.1503C86.4246 47.1209 87.0363 46.0053 87.9389 45.1036C89.1976 43.8449 90.8709 43.1514 92.6502 43.1514C94.4295 43.1514 96.1028 43.8449 97.3615 45.1036L102.547 50.289C103.806 51.5477 104.499 53.221 104.499 55.0003C104.499 56.7795 103.806 58.4528 102.547 59.7115L97.3615 64.8969C96.1028 66.1556 94.4295 66.8491 92.6502 66.8491C90.8709 66.8491 89.1976 66.1556 87.9389 64.8969C87.0363 63.9952 86.4246 62.8796 86.1503 61.6637H85.0041C84.3246 65.2353 83.0231 68.6247 81.1425 71.7184L81.7421 72.3189C82.7693 71.6701 83.9862 71.2945 85.2886 71.2945C88.9624 71.2945 91.9521 74.2841 91.9521 77.958V85.2907C91.9521 88.9646 88.9624 91.9542 85.2886 91.9542H77.9567C74.2829 91.9542 71.2933 88.9646 71.2933 85.2907C71.2933 83.9874 71.6688 82.7696 72.3186 81.7415L71.9012 81.325C68.7777 83.4185 65.3252 84.8985 61.6625 85.7128V86.1516C62.8775 86.4249 63.994 87.0366 64.8957 87.9401C66.1544 89.1988 66.8479 90.8721 66.8479 92.6514C66.8479 94.4307 66.1544 96.104 64.8957 97.3627L59.7103 102.548C58.4516 103.807 56.7783 104.5 54.999 104.5Z" fill="#F6F0E0"/>
<path d="M54.9602 79.8118C68.1931 79.8118 78.9204 69.0844 78.9204 55.8516C78.9204 42.6187 68.1931 31.8914 54.9602 31.8914C41.7273 31.8914 31 42.6187 31 55.8516C31 69.0844 41.7273 79.8118 54.9602 79.8118Z" fill="#F9CC4B"/>
<path d="M68.803 71.7919V75.4091C64.9002 78.1697 60.1215 79.807 54.962 79.807C49.8407 79.807 45.1001 78.1888 41.1973 75.4472V71.7919C41.1973 68.8028 43.6152 66.3849 46.6042 66.3849H50.5262C51.4019 66.3849 52.1063 65.6805 52.1063 64.8047V59.8738H57.894V64.8047C57.894 65.6805 58.5984 66.3849 59.4741 66.3849H63.3961C66.3851 66.3849 68.803 68.8028 68.803 71.7919Z" fill="white"/>
<path d="M55.0008 62.0233C51.5209 62.0233 48.5336 59.5471 47.888 56.1277L47.3955 53.5188C46.4958 48.7531 50.1508 44.3435 55.0008 44.3435C59.8507 44.3435 63.5057 48.7531 62.606 53.5188L62.1135 56.1277C61.468 59.5471 58.4806 62.0233 55.0008 62.0233Z" fill="white"/>
<path d="M99.1828 53.6541L93.9974 48.4687C93.2537 47.725 92.0489 47.725 91.3052 48.4687C90.5616 49.2124 90.5616 50.4172 91.3052 51.1608L93.2407 53.0963H80.6726C80.0801 47.5292 77.6979 42.5023 74.136 38.5565L83.3859 29.3073V32.0424C83.3859 33.0948 84.2383 33.9463 85.2897 33.9463C86.3411 33.9463 87.1936 33.0948 87.1936 32.0424V24.7097C87.1936 23.6573 86.3411 22.8058 85.2897 22.8058H77.9579C76.9065 22.8058 76.054 23.6573 76.054 24.7097C76.054 25.762 76.9065 26.6135 77.9579 26.6135H80.6953L71.4054 35.9029C67.4027 32.597 62.3855 30.4954 56.904 30.0847V16.7596L58.8395 18.6951C59.2113 19.0669 59.6984 19.2528 60.1855 19.2528C60.6726 19.2528 61.1598 19.0669 61.5316 18.6951C62.2753 17.9514 62.2753 16.7466 61.5316 16.0029L56.3462 10.8175C55.6025 10.0738 54.3978 10.0738 53.6541 10.8175L48.4687 16.0029C47.725 16.7466 47.725 17.9514 48.4687 18.6951C49.2124 19.4388 50.4172 19.4388 51.1609 18.6951L53.0963 16.7596V30.0805C47.6038 30.4748 42.5748 32.5666 38.56 35.8679L29.305 26.6135H32.0424C33.0938 26.6135 33.9463 25.762 33.9463 24.7097C33.9463 23.6573 33.0938 22.8058 32.0424 22.8058H24.7106C23.6592 22.8058 22.8067 23.6573 22.8067 24.7097V32.0424C22.8067 33.0948 23.6592 33.9463 24.7106 33.9463C25.762 33.9463 26.6144 33.0948 26.6144 32.0424V29.3073L35.8219 38.5141C32.2387 42.4661 29.8415 47.5092 29.2469 53.0963H16.7596L18.6951 51.1608C19.4388 50.4172 19.4388 49.2124 18.6951 48.4687C17.9514 47.725 16.7466 47.725 16.0029 48.4687L10.8175 53.6541C10.0738 54.3978 10.0738 55.6025 10.8175 56.3462L16.0029 61.5316C16.3748 61.9034 16.8619 62.0894 17.349 62.0894C17.8361 62.0894 18.3232 61.9034 18.6951 61.5316C19.4388 60.7879 19.4388 59.5831 18.6951 58.8394L16.7596 56.904H29.1489C29.385 62.7325 31.5274 68.0782 35.0109 72.2963L26.6144 80.6928V77.9579C26.6144 76.9055 25.762 76.054 24.7106 76.054C23.6592 76.054 22.8067 76.9055 22.8067 77.9579V85.2906C22.8067 86.343 23.6592 87.1945 24.7106 87.1945H32.0424C33.0938 87.1945 33.9463 86.343 33.9463 85.2906C33.9463 84.2383 33.0938 83.3868 32.0424 83.3868H29.3047L37.6644 75.0271C41.8184 78.7774 47.1786 81.1962 53.0963 81.621V93.2407L51.1609 91.3052C50.4172 90.5615 49.2124 90.5615 48.4687 91.3052C47.725 92.0489 47.725 93.2537 48.4687 93.9974L53.6541 99.1828C54.0259 99.5546 54.513 99.7405 55.0002 99.7405C55.4873 99.7405 55.9744 99.5546 56.3462 99.1828L61.5316 93.9974C62.2753 93.2537 62.2753 92.0489 61.5316 91.3052C60.7879 90.5615 59.5831 90.5615 58.8395 91.3052L56.904 93.2407V81.6168C62.8101 81.1742 68.1564 78.7436 72.2973 74.9886L80.6956 83.3868H77.9579C76.9065 83.3868 76.054 84.2383 76.054 85.2906C76.054 86.343 76.9065 87.1945 77.9579 87.1945H85.2897C86.3411 87.1945 87.1936 86.343 87.1936 85.2906V77.9579C87.1936 76.9055 86.3411 76.054 85.2897 76.054C84.2383 76.054 83.3859 76.9055 83.3859 77.9579V80.6928L74.9432 72.2501C78.4055 68.0389 80.5352 62.712 80.7705 56.904H93.2407L91.3052 58.8394C90.5616 59.5831 90.5616 60.7879 91.3052 61.5316C91.6771 61.9034 92.1642 62.0894 92.6513 62.0894C93.1384 62.0894 93.6255 61.9034 93.9974 61.5316L99.1828 56.3462C99.9265 55.6025 99.9265 54.3978 99.1828 53.6541ZM55.0002 60.1205C52.4381 60.1205 50.2331 58.2928 49.7581 55.7754L49.2654 53.1651C48.9428 51.4527 49.3946 49.7014 50.5073 48.359C51.6192 47.0166 53.2571 46.2469 55.0002 46.2469C56.7432 46.2469 58.3811 47.0166 59.493 48.359C60.6057 49.7014 61.0575 51.4527 60.7349 53.1651L60.2422 55.7754C59.7672 58.2928 57.5622 60.1205 55.0002 60.1205ZM54.0101 64.8057V63.8404C54.3386 63.8763 54.6633 63.9281 55.0002 63.9281C55.337 63.9281 55.6617 63.8763 55.9902 63.8404V64.8057C55.9902 66.7263 57.5529 68.2899 59.4744 68.2899H63.3964C65.3281 68.2899 66.8992 69.8609 66.8992 71.7927V74.3689C63.4537 76.5982 59.3597 77.9076 54.9592 77.9076C50.5929 77.9076 46.5299 76.6162 43.1011 74.4185V71.7927C43.1011 69.8609 44.6722 68.2899 46.6039 68.2899H50.5259C52.4474 68.2899 54.0101 66.7263 54.0101 64.8057ZM70.659 71.3186C70.4094 67.512 67.2649 64.4822 63.3964 64.4822H59.7979V62.543C61.9205 61.228 63.4938 59.0774 63.983 56.4819L64.4757 53.8716C65.0102 51.0419 64.2628 48.147 62.425 45.929C60.5862 43.7109 57.8801 42.4392 55.0002 42.4392C52.1202 42.4392 49.4141 43.7109 47.5753 45.929C45.7375 48.147 44.9901 51.0419 45.5246 53.8716L46.0173 56.4819C46.5065 59.0774 48.0798 61.228 50.2024 62.543V64.4822H46.6039C42.7079 64.4822 39.5424 67.5544 39.3333 71.3992C35.3626 67.4085 32.9033 61.9124 32.9033 55.8517C32.9033 43.6886 42.7971 33.7938 54.9592 33.7938C67.1214 33.7938 77.0162 43.6886 77.0162 55.8517C77.0162 61.8733 74.585 67.3344 70.659 71.3186Z" fill="#30100B"/>
</svg>
