<svg width="90" height="90" viewBox="0 0 90 90" fill="none" xmlns="http://www.w3.org/2000/svg">
<path d="M79.1049 19.5806V61.5424C79.1049 62.451 78.3683 63.1876 77.4598 63.1876H14.2603C13.3518 63.1876 12.6152 62.451 12.6152 61.5424V14.6956C12.7952 16.5136 14.3432 17.9355 16.1972 17.9355H77.4598C78.3683 17.9355 79.1049 18.6721 79.1049 19.5806Z" fill="#CB9F78"/>
<path d="M68.3048 17.9275H16.2055C14.2172 17.9275 12.6055 16.3158 12.6055 14.3275C12.6055 12.3393 14.2172 10.7275 16.2055 10.7275H66.6597C67.5683 10.7275 68.3048 11.4641 68.3048 12.3727V17.9275Z" fill="#A37F5F"/>
<path d="M20.5848 79.2721C29.4682 79.2721 36.6696 72.0707 36.6696 63.1873C36.6696 54.304 29.4682 47.1025 20.5848 47.1025C11.7014 47.1025 4.5 54.304 4.5 63.1873C4.5 72.0707 11.7014 79.2721 20.5848 79.2721Z" fill="#FCE774"/>
<path d="M83.8703 47.7651H69.687C65.711 47.7651 62.483 44.5371 62.483 40.5611C62.483 36.5851 65.711 33.3571 69.687 33.3571H83.8703C84.7698 33.3571 85.5 34.0873 85.5 34.9868V46.1355C85.5 47.0349 84.7698 47.7651 83.8703 47.7651Z" fill="#FFD5BC"/>
<path d="M86.8504 34.9874V46.1354C86.8504 47.7781 85.5136 49.1149 83.8709 49.1149H80.4546V61.5427C80.4546 63.1941 79.1107 64.5371 77.4593 64.5371H37.9525C37.2592 73.521 29.7439 80.6228 20.5853 80.6228C10.9718 80.6228 3.15039 72.8015 3.15039 63.1871C3.15039 57.0027 6.39674 51.5737 11.2653 48.4777C11.2653 48.4777 11.2557 14.3998 11.2557 14.327C11.2557 11.5971 13.4767 9.37695 16.2057 9.37695H21.0256C21.7709 9.37695 22.3756 9.98164 22.3756 10.727C22.3756 11.4723 21.7709 12.077 21.0256 12.077H16.2057C14.9646 12.077 13.9557 13.0859 13.9557 14.327C13.9557 14.3749 13.9556 14.5262 13.9592 14.5625C14.0708 15.6972 15.0534 16.5857 16.1969 16.5857H66.9546V12.3723C66.9546 12.2097 66.8219 12.077 66.6593 12.077H31.1365C30.3912 12.077 29.7865 11.4723 29.7865 10.727C29.7865 9.98164 30.3912 9.37695 31.1365 9.37695H66.6593C68.3107 9.37695 69.6546 10.7208 69.6546 12.3723V16.5857H77.4593C79.1107 16.5857 80.4546 17.9287 80.4546 19.5802V32.007H83.8709C85.5136 32.007 86.8504 33.3438 86.8504 34.9874ZM35.321 63.1871C35.321 55.0625 28.7107 48.4522 20.5853 48.4522C12.4606 48.4522 5.85039 55.0625 5.85039 63.1871C5.85039 71.3126 12.4606 77.9229 20.5853 77.9229C28.7107 77.9229 35.321 71.3126 35.321 63.1871ZM77.7546 49.1149H69.6871C64.9709 49.1149 61.1336 45.2776 61.1336 40.5614C61.1336 35.8443 64.9709 32.007 69.6871 32.007H77.7546V19.5802C77.7546 19.4176 77.6219 19.2857 77.4593 19.2857H16.1969C15.3953 19.2857 14.6368 19.0977 13.9653 18.7602V47.0659C16.0083 46.2238 18.2419 45.7522 20.5853 45.7522C29.7439 45.7522 37.2591 52.854 37.9525 61.8371H77.4593C77.6219 61.8371 77.7546 61.7053 77.7546 61.5427V49.1149ZM84.1504 34.9874C84.1504 34.8327 84.0247 34.707 83.8709 34.707H69.6871C66.4598 34.707 63.8336 37.3332 63.8336 40.5614C63.8336 43.7888 66.4598 46.4149 69.6871 46.4149H83.8709C84.0247 46.4149 84.1504 46.2893 84.1504 46.1354V34.9874ZM69.8225 39.2035C69.0842 39.2035 68.4725 39.8152 68.4725 40.5535C68.4725 41.3094 69.0842 41.9035 69.8225 41.9035C70.5783 41.9035 71.1725 41.3094 71.1725 40.5535C71.1725 39.8152 70.5783 39.2035 69.8225 39.2035ZM26.154 12.0778C26.9099 12.0778 27.504 11.4652 27.504 10.7278C27.504 9.97197 26.9099 9.37783 26.154 9.37783C25.4157 9.37783 24.804 9.97197 24.804 10.7278C24.804 11.4652 25.4157 12.0778 26.154 12.0778Z" fill="#503B5E"/>
<path d="M15.1993 58.74V57.08H26.0793V58.74H23.7593V60.24C23.7593 60.34 23.7593 60.44 23.7593 60.52H26.0793V62.16H23.6393C23.1993 64.82 21.6993 65.78 18.1793 65.78V67.04C18.1793 68.38 18.6393 69.42 20.2393 69.42C21.7393 69.42 22.2793 68.5 22.2793 67.12H24.3793C24.3393 69.84 22.8593 71.2 20.1993 71.2C17.4793 71.2 16.0393 69.62 16.0393 66.94V64.2C20.0593 64.2 21.1993 64.04 21.5193 62.16H15.1993V60.52H21.6193C21.6193 60.44 21.6193 60.34 21.6193 60.24V58.74H15.1993Z" fill="#503B5E"/>
</svg>
