<svg width="98" height="98" viewBox="0 0 98 98" fill="none" xmlns="http://www.w3.org/2000/svg">
<path d="M87.0048 18.6396H10.996C7.62948 18.6396 4.90039 21.3687 4.90039 24.7352V70.9011C4.90039 74.2676 7.62948 76.9967 10.996 76.9967H87.0048C90.3713 76.9967 93.1004 74.2676 93.1004 70.9011V24.7352C93.1004 21.3687 90.3713 18.6396 87.0048 18.6396Z" fill="#4783C7"/>
<path d="M93.1004 24.7411V34.5199L72.932 45.6614H25.7352L4.90039 34.5199V24.7411C4.90039 21.3743 7.62972 18.645 10.9965 18.645H87.0043C90.3711 18.645 93.1004 21.3743 93.1004 24.7411Z" fill="#98C8FD"/>
<path d="M51.064 39.1372H46.9362C45.9111 39.1372 45.0801 39.9682 45.0801 40.9933V50.3288C45.0801 51.3539 45.9111 52.1849 46.9362 52.1849H51.064C52.0891 52.1849 52.9201 51.3539 52.9201 50.3288V40.9933C52.9201 39.9682 52.0891 39.1372 51.064 39.1372Z" fill="white"/>
<path d="M73.0829 93.1001C84.1383 93.1001 93.1004 84.138 93.1004 73.0827C93.1004 62.0273 84.1383 53.0652 73.0829 53.0652C62.0276 53.0652 53.0654 62.0273 53.0654 73.0827C53.0654 84.138 62.0276 93.1001 73.0829 93.1001Z" fill="white"/>
<path d="M72.9144 76.7832C75.1021 76.7832 76.8756 75.0097 76.8756 72.822C76.8756 70.6343 75.1021 68.8608 72.9144 68.8608C70.7267 68.8608 68.9532 70.6343 68.9532 72.822C68.9532 75.0097 70.7267 76.7832 72.9144 76.7832Z" fill="#98C8FD"/>
<path d="M87.0034 17.1691H83.3724C83.3724 16.3575 82.714 15.6991 81.9024 15.6991H74.1457C73.3341 15.6991 72.6757 16.3575 72.6757 17.1691H66.3162V9.90425C66.3162 6.33452 63.4116 3.42993 59.8419 3.42993H38.1575C34.5878 3.42993 31.6832 6.33452 31.6832 9.90425V17.1691H25.3237C25.3237 16.3575 24.6653 15.6991 23.8537 15.6991H16.097C15.2854 15.6991 14.627 16.3575 14.627 17.1691H10.996C6.82428 17.1691 3.42969 20.5637 3.42969 24.7354V70.9016C3.42969 75.0733 6.82428 78.4669 10.996 78.4669H52.3064C54.7053 87.7128 63.0966 94.5699 73.0824 94.5699C81.7789 94.5699 89.2701 89.3727 92.6406 81.9226C93.6435 79.7059 94.1984 77.3745 94.4608 74.9634C94.5032 74.5745 94.5697 74.1807 94.5697 73.789V24.7354C94.5697 20.5637 91.1751 17.1691 87.0034 17.1691ZM34.6232 9.90425C34.6232 7.95573 36.209 6.36993 38.1575 6.36993H59.8419C61.7904 6.36993 63.3762 7.95573 63.3762 9.90425V17.1691H34.6232V9.90425ZM10.996 20.1091H87.0034C89.5539 20.1091 91.6297 22.1849 91.6297 24.7354V33.6525L72.5522 44.1918H54.3897V40.9934C54.3897 39.1597 52.8977 37.6677 51.064 37.6677H46.9354C45.1017 37.6677 43.6097 39.1597 43.6097 40.9934V44.1918H26.1027L6.36969 33.6396V24.7354C6.36969 22.1849 8.44549 20.1091 10.996 20.1091ZM51.4497 40.9934V50.3293C51.4497 50.5417 51.2765 50.7149 51.064 50.7149H46.9354C46.7229 50.7149 46.5497 50.5417 46.5497 50.3293V40.9934C46.5497 40.7809 46.7229 40.6077 46.9354 40.6077H51.064C51.2765 40.6077 51.4497 40.7809 51.4497 40.9934ZM61.1578 56.9375C61.5914 57.6237 62.5005 57.8257 63.1858 57.3941C66.143 55.525 69.5653 54.5364 73.0824 54.5364C83.3093 54.5364 91.6297 62.8558 91.6297 73.0827C91.6297 83.3095 83.3093 91.6299 73.0824 91.6299C62.8556 91.6299 54.5361 83.3095 54.5361 73.0827C54.5361 70.1704 55.1917 67.3826 56.4837 64.7986C56.8464 64.0722 56.5526 63.1898 55.8262 62.8262C55.0998 62.4654 54.2165 62.7573 53.8538 63.4836C52.356 66.4801 51.5961 69.7091 51.5961 73.0827C51.5961 73.9103 51.654 74.7235 51.7455 75.5269H10.996C8.44549 75.5269 6.36969 73.4521 6.36969 70.9016V36.9723L25.0414 46.9576C25.2538 47.0725 25.4921 47.1318 25.7343 47.1318H43.6097V50.3293C43.6097 52.1629 45.1017 53.6549 46.9354 53.6549H51.064C52.8977 53.6549 54.3897 52.1629 54.3897 50.3293V47.1318H72.9312C73.18 47.1318 73.4241 47.0686 73.6423 46.9481L91.6297 37.0106V62.2857C87.8998 55.9043 80.9924 51.5964 73.0824 51.5964C69.0083 51.5964 65.0424 52.7419 61.6143 54.9096C60.9281 55.3431 60.7233 56.2514 61.1578 56.9375ZM70.586 77.7091C71.2941 78.048 72.0771 78.2535 72.913 78.2535C75.9085 78.2535 78.3451 75.8169 78.3451 72.8214C78.3451 70.4701 76.8341 68.4823 74.7387 67.7286C74.7388 66.7385 74.7181 65.7483 74.6756 64.7583C74.4405 62.2496 74.6365 59.2899 72.9313 57.3103C71.2992 60.4339 71.115 64.0911 71.2486 67.6786C69.071 68.3863 67.4819 70.411 67.4819 72.8214C67.4819 73.7354 67.7302 74.5841 68.1305 75.3407C66.5336 77.237 64.4007 79.166 64.2093 81.7123C66.6077 80.9743 68.6922 79.473 70.586 77.7091ZM72.913 70.3302C74.2873 70.3302 75.4051 71.4481 75.4051 72.8214C75.4051 74.1957 74.2873 75.3135 72.913 75.3135C71.5397 75.3135 70.4219 74.1957 70.4219 72.8214C70.4219 71.4481 71.5397 70.3302 72.913 70.3302ZM59.8189 59.8192C59.8189 60.6422 59.1519 61.2892 58.3489 61.2892C57.5249 61.2892 56.8789 60.6422 56.8789 59.8192C56.8789 59.0153 57.5249 58.3492 58.3489 58.3492C59.1519 58.3492 59.8189 59.0153 59.8189 59.8192Z" fill="#194375"/>
</svg>
